<mxfile host="Electron" modified="2024-06-20T12:15:46.962Z" agent="Mozilla/5.0 (Windows NT 10.0; Win64; x64) AppleWebKit/537.36 (KHTML, like Gecko) draw.io/22.1.2 Chrome/114.0.5735.289 Electron/25.9.4 Safari/537.36" etag="Y2bTTrwMwUi1lfUhy6KT" version="22.1.2" type="device">
  <diagram name="Page-1" id="dTAiJb2QgALMWD01dpeV">
    <mxGraphModel dx="899" dy="566" grid="1" gridSize="10" guides="1" tooltips="1" connect="1" arrows="1" fold="1" page="1" pageScale="1" pageWidth="1169" pageHeight="827" math="0" shadow="0">
      <root>
        <mxCell id="0" />
        <mxCell id="1" parent="0" />
        <mxCell id="Vqz9WKwK6DftyiDtnl9u-1" value="us-east-1" style="points=[[0,0],[0.25,0],[0.5,0],[0.75,0],[1,0],[1,0.25],[1,0.5],[1,0.75],[1,1],[0.75,1],[0.5,1],[0.25,1],[0,1],[0,0.75],[0,0.5],[0,0.25]];outlineConnect=0;gradientColor=none;html=1;whiteSpace=wrap;fontSize=12;fontStyle=0;container=1;pointerEvents=0;collapsible=0;recursiveResize=0;shape=mxgraph.aws4.group;grIcon=mxgraph.aws4.group_region;strokeColor=#00A4A6;fillColor=none;verticalAlign=top;align=left;spacingLeft=30;fontColor=#147EBA;dashed=1;" vertex="1" parent="1">
          <mxGeometry x="280" y="160" width="720" height="400" as="geometry" />
        </mxCell>
        <mxCell id="Vqz9WKwK6DftyiDtnl9u-3" value="bucket-one50001" style="sketch=0;outlineConnect=0;fontColor=#232F3E;gradientColor=none;fillColor=#7AA116;strokeColor=none;dashed=0;verticalLabelPosition=bottom;verticalAlign=top;align=center;html=1;fontSize=12;fontStyle=0;aspect=fixed;pointerEvents=1;shape=mxgraph.aws4.bucket;" vertex="1" parent="Vqz9WKwK6DftyiDtnl9u-1">
          <mxGeometry x="110" y="100" width="75" height="78" as="geometry" />
        </mxCell>
        <mxCell id="Vqz9WKwK6DftyiDtnl9u-6" style="edgeStyle=orthogonalEdgeStyle;rounded=0;orthogonalLoop=1;jettySize=auto;html=1;" edge="1" parent="Vqz9WKwK6DftyiDtnl9u-1" source="Vqz9WKwK6DftyiDtnl9u-4" target="Vqz9WKwK6DftyiDtnl9u-5">
          <mxGeometry relative="1" as="geometry" />
        </mxCell>
        <mxCell id="Vqz9WKwK6DftyiDtnl9u-4" value="hub-ec2-01" style="sketch=0;points=[[0,0,0],[0.25,0,0],[0.5,0,0],[0.75,0,0],[1,0,0],[0,1,0],[0.25,1,0],[0.5,1,0],[0.75,1,0],[1,1,0],[0,0.25,0],[0,0.5,0],[0,0.75,0],[1,0.25,0],[1,0.5,0],[1,0.75,0]];outlineConnect=0;fontColor=#232F3E;fillColor=#ED7100;strokeColor=#ffffff;dashed=0;verticalLabelPosition=bottom;verticalAlign=top;align=center;html=1;fontSize=12;fontStyle=0;aspect=fixed;shape=mxgraph.aws4.resourceIcon;resIcon=mxgraph.aws4.ec2;" vertex="1" parent="Vqz9WKwK6DftyiDtnl9u-1">
          <mxGeometry x="470" y="100" width="78" height="78" as="geometry" />
        </mxCell>
        <mxCell id="Vqz9WKwK6DftyiDtnl9u-5" value="s3-role" style="sketch=0;outlineConnect=0;fontColor=#232F3E;gradientColor=none;fillColor=#DD344C;strokeColor=none;dashed=0;verticalLabelPosition=bottom;verticalAlign=top;align=center;html=1;fontSize=12;fontStyle=0;aspect=fixed;pointerEvents=1;shape=mxgraph.aws4.role;" vertex="1" parent="Vqz9WKwK6DftyiDtnl9u-1">
          <mxGeometry x="470" y="290" width="78" height="44" as="geometry" />
        </mxCell>
        <mxCell id="Vqz9WKwK6DftyiDtnl9u-7" value="The ec2 holds the IAM Role" style="rounded=1;whiteSpace=wrap;html=1;strokeWidth=2;fillWeight=4;hachureGap=8;hachureAngle=45;fillColor=#dae8fc;sketch=1;strokeColor=#6c8ebf;" vertex="1" parent="Vqz9WKwK6DftyiDtnl9u-1">
          <mxGeometry x="578" y="109" width="120" height="60" as="geometry" />
        </mxCell>
        <mxCell id="Vqz9WKwK6DftyiDtnl9u-8" value="Role holds s3 full access" style="rounded=1;whiteSpace=wrap;html=1;strokeWidth=2;fillWeight=4;hachureGap=8;hachureAngle=45;fillColor=#dae8fc;sketch=1;strokeColor=#6c8ebf;" vertex="1" parent="Vqz9WKwK6DftyiDtnl9u-1">
          <mxGeometry x="578" y="282" width="120" height="60" as="geometry" />
        </mxCell>
        <mxCell id="Vqz9WKwK6DftyiDtnl9u-9" value="" style="endArrow=classic;startArrow=classic;html=1;rounded=0;entryX=0;entryY=0.5;entryDx=0;entryDy=0;entryPerimeter=0;" edge="1" parent="Vqz9WKwK6DftyiDtnl9u-1" source="Vqz9WKwK6DftyiDtnl9u-3" target="Vqz9WKwK6DftyiDtnl9u-4">
          <mxGeometry width="50" height="50" relative="1" as="geometry">
            <mxPoint x="270" y="184" as="sourcePoint" />
            <mxPoint x="320" y="134" as="targetPoint" />
          </mxGeometry>
        </mxCell>
        <mxCell id="Vqz9WKwK6DftyiDtnl9u-10" value="Put, and Get Objects" style="edgeLabel;html=1;align=center;verticalAlign=middle;resizable=0;points=[];" vertex="1" connectable="0" parent="Vqz9WKwK6DftyiDtnl9u-9">
          <mxGeometry x="0.0425" y="1" relative="1" as="geometry">
            <mxPoint as="offset" />
          </mxGeometry>
        </mxCell>
      </root>
    </mxGraphModel>
  </diagram>
</mxfile>
